<svg version="1.1" id="Layer_1" xmlns="http://www.w3.org/2000/svg" xmlns:xlink="http://www.w3.org/1999/xlink" x="0px" y="0px"
	 width="100%" viewBox="0 0 1254 1254" enable-background="new 0 0 1254 1254" xml:space="preserve">
<path fill="#251A3F" opacity="1.000000" stroke="none" 
	d="
M826.000000,1255.000000 
	C550.666687,1255.000000 275.833344,1255.000000 1.000000,1255.000000 
	C1.000000,837.000000 1.000000,419.000000 1.000000,1.000000 
	C419.000000,1.000000 837.000000,1.000000 1255.000000,1.000000 
	C1255.000000,419.000000 1255.000000,837.000000 1255.000000,1255.000000 
	C1112.166626,1255.000000 969.333313,1255.000000 826.000000,1255.000000 
M486.500000,1091.037354 
	C647.000366,1091.075928 807.500793,1091.081299 968.001160,1091.171875 
	C1020.944519,1091.201660 1059.728027,1050.683838 1055.893799,997.874573 
	C1054.718384,981.688232 1050.740723,965.667847 1047.543335,949.671936 
	C1027.069214,847.246460 1006.437073,744.852539 985.892212,642.441223 
	C965.605164,541.315674 945.365173,440.180664 925.090942,339.052521 
	C921.940979,323.340179 913.159607,316.135864 897.212585,316.131927 
	C860.046082,316.122772 822.879639,316.132263 785.713135,316.137695 
	C767.046570,316.140411 748.379700,316.081421 729.713623,316.183838 
	C718.455933,316.245605 709.893250,322.564911 707.182861,332.481232 
	C703.520508,345.880463 712.572205,358.839722 727.078613,360.965973 
	C746.984070,363.883575 759.146545,376.752136 759.240601,394.995056 
	C759.378967,421.850830 736.330444,439.617065 709.535156,433.482422 
	C694.533020,430.047760 684.052612,420.234955 674.400635,409.204437 
	C656.492126,388.738037 642.618896,365.536713 630.397461,341.456940 
	C615.704529,312.507416 602.185486,282.963318 588.061829,253.723206 
	C578.127930,233.157120 568.019592,212.646423 553.482849,194.808151 
	C531.514954,167.850967 499.750122,157.958435 468.465759,169.005508 
	C442.313751,178.240295 425.805328,197.509125 417.021912,223.270691 
	C407.699402,250.613495 410.722198,277.466064 422.399139,303.562988 
	C424.200623,307.589203 426.191742,311.530609 428.415894,316.181946 
	C424.155975,316.181946 420.837769,316.182190 417.519592,316.181854 
	C398.353088,316.180023 379.186523,316.147217 360.020111,316.185181 
	C342.314880,316.220215 334.472015,322.688416 331.026062,339.987488 
	C322.985718,380.350922 314.999420,420.725159 306.905029,461.077759 
	C288.262665,554.014832 269.583344,646.944458 250.891693,739.871582 
	C234.631302,820.711548 218.424789,901.562439 201.996338,982.368286 
	C197.071503,1006.591919 199.383286,1029.571899 212.793182,1050.641724 
	C229.531952,1076.942139 253.867371,1090.786743 285.002045,1090.960815 
	C351.832764,1091.334473 418.667114,1091.050415 486.500000,1091.037354 
z"/>
<path fill="#945FF9" opacity="1.000000" stroke="none" 
	d="
M486.000000,1091.036499 
	C418.667114,1091.050415 351.832764,1091.334473 285.002045,1090.960815 
	C253.867371,1090.786743 229.531952,1076.942139 212.793182,1050.641724 
	C199.383286,1029.571899 197.071503,1006.591919 201.996338,982.368286 
	C218.424789,901.562439 234.631302,820.711548 250.891693,739.871582 
	C269.583344,646.944458 288.262665,554.014832 306.905029,461.077759 
	C314.999420,420.725159 322.985718,380.350922 331.026062,339.987488 
	C334.472015,322.688416 342.314880,316.220215 360.020111,316.185181 
	C379.186523,316.147217 398.353088,316.180023 417.519592,316.181854 
	C420.837769,316.182190 424.155975,316.181946 428.415894,316.181946 
	C426.191742,311.530609 424.200623,307.589203 422.399139,303.562988 
	C410.722198,277.466064 407.699402,250.613495 417.021912,223.270691 
	C425.805328,197.509125 442.313751,178.240295 468.465759,169.005508 
	C499.750122,157.958435 531.514954,167.850967 553.482849,194.808151 
	C568.019592,212.646423 578.127930,233.157120 588.061829,253.723206 
	C602.185486,282.963318 615.704529,312.507416 630.397461,341.456940 
	C642.618896,365.536713 656.492126,388.738037 674.400635,409.204437 
	C684.052612,420.234955 694.533020,430.047760 709.535156,433.482422 
	C736.330444,439.617065 759.378967,421.850830 759.240601,394.995056 
	C759.146545,376.752136 746.984070,363.883575 727.078613,360.965973 
	C712.572205,358.839722 703.520508,345.880463 707.182861,332.481232 
	C709.893250,322.564911 718.455933,316.245605 729.713623,316.183838 
	C748.379700,316.081421 767.046570,316.140411 785.713135,316.137695 
	C822.879639,316.132263 860.046082,316.122772 897.212585,316.131927 
	C913.159607,316.135864 921.940979,323.340179 925.090942,339.052521 
	C945.365173,440.180664 965.605164,541.315674 985.892212,642.441223 
	C1006.437073,744.852539 1027.069214,847.246460 1047.543335,949.671936 
	C1050.740723,965.667847 1054.718384,981.688232 1055.893799,997.874573 
	C1059.728027,1050.683838 1020.944519,1091.201660 968.001160,1091.171875 
	C807.500793,1091.081299 647.000366,1091.075928 486.000000,1091.036499 
M802.887451,394.519409 
	C802.414246,400.320251 802.515503,406.236328 801.378601,411.904053 
	C790.491211,466.177551 732.713684,494.471558 682.272034,470.494781 
	C661.035706,460.400391 645.200073,444.220032 631.077026,426.013641 
	C607.420593,395.517303 590.469910,361.138733 573.657959,326.685608 
	C559.779846,298.244751 546.344299,269.577606 531.874390,241.441925 
	C527.390808,232.723846 520.757019,224.862717 514.015747,217.626450 
	C507.600464,210.740067 498.741028,208.484726 489.222870,209.647202 
	C473.704498,211.542480 461.559601,222.515518 457.204254,238.647003 
	C450.060333,265.106750 462.353546,299.498596 484.933777,316.354034 
	C487.329285,318.142181 489.779694,319.946381 491.819550,322.106750 
	C503.288422,334.253113 498.131439,354.432861 482.198730,359.427826 
	C478.773560,360.501556 474.997192,360.843048 471.380219,360.856018 
	C440.048950,360.968292 408.717133,360.928406 377.385498,360.933746 
	C375.615723,360.934052 373.845947,360.933777 372.002289,360.933777 
	C371.530884,363.166992 371.172791,364.784729 370.848816,366.409241 
	C352.080933,460.521942 333.458832,554.664001 314.514160,648.741150 
	C291.292023,764.059814 267.764282,879.316895 244.449127,994.616882 
	C238.231766,1025.363403 261.671814,1050.160400 292.794495,1046.021118 
	C316.165344,1042.912842 329.538788,1016.071777 317.854187,995.718262 
	C313.441833,988.032349 306.718567,983.742371 298.214325,981.498169 
	C287.444855,978.656067 280.786285,968.291931 281.924255,957.072449 
	C282.998505,946.481567 291.078522,938.260620 302.078827,937.671021 
	C306.587952,937.429260 311.395599,938.494385 315.732056,939.958313 
	C355.173676,953.274109 375.777771,997.491211 361.396210,1037.558105 
	C360.420227,1040.277100 359.424408,1042.989014 358.339844,1045.973999 
	C538.611267,1045.973999 718.187561,1045.973999 898.205688,1045.973999 
	C897.615784,1044.362305 897.228394,1043.135254 896.726318,1041.957153 
	C887.358154,1019.974976 887.573303,998.012207 898.189514,976.682983 
	C908.572388,955.822510 925.205505,942.101990 948.473572,937.860352 
	C961.785034,935.433838 973.224182,946.018066 973.098450,959.556885 
	C972.999756,970.187012 966.798706,978.423096 956.315186,981.848022 
	C939.144958,987.457642 930.523621,1003.603638 935.394104,1021.028809 
	C941.666443,1043.469360 968.343018,1053.518433 990.517822,1041.794067 
	C1008.236877,1032.425537 1016.023132,1014.518433 1011.654541,992.934631 
	C995.292542,912.094360 978.825928,831.275208 962.538391,750.419922 
	C936.680359,622.054199 910.921875,493.668335 885.215820,365.272064 
	C884.581421,362.103241 883.622742,360.803955 880.174500,360.825439 
	C853.510315,360.991577 826.844849,360.958649 800.179810,361.008392 
	C799.123779,361.010345 798.068115,361.223755 798.082825,361.222168 
	C799.726440,372.287903 801.305725,382.920441 802.887451,394.519409 
z"/>
<path fill="#251A40" opacity="1.000000" stroke="none" 
	d="
M802.886230,394.036194 
	C801.305725,382.920441 799.726440,372.287903 798.082825,361.222168 
	C798.068115,361.223755 799.123779,361.010345 800.179810,361.008392 
	C826.844849,360.958649 853.510315,360.991577 880.174500,360.825439 
	C883.622742,360.803955 884.581421,362.103241 885.215820,365.272064 
	C910.921875,493.668335 936.680359,622.054199 962.538391,750.419922 
	C978.825928,831.275208 995.292542,912.094360 1011.654541,992.934631 
	C1016.023132,1014.518433 1008.236877,1032.425537 990.517822,1041.794067 
	C968.343018,1053.518433 941.666443,1043.469360 935.394104,1021.028809 
	C930.523621,1003.603638 939.144958,987.457642 956.315186,981.848022 
	C966.798706,978.423096 972.999756,970.187012 973.098450,959.556885 
	C973.224182,946.018066 961.785034,935.433838 948.473572,937.860352 
	C925.205505,942.101990 908.572388,955.822510 898.189514,976.682983 
	C887.573303,998.012207 887.358154,1019.974976 896.726318,1041.957153 
	C897.228394,1043.135254 897.615784,1044.362305 898.205688,1045.973999 
	C718.187561,1045.973999 538.611267,1045.973999 358.339844,1045.973999 
	C359.424408,1042.989014 360.420227,1040.277100 361.396210,1037.558105 
	C375.777771,997.491211 355.173676,953.274109 315.732056,939.958313 
	C311.395599,938.494385 306.587952,937.429260 302.078827,937.671021 
	C291.078522,938.260620 282.998505,946.481567 281.924255,957.072449 
	C280.786285,968.291931 287.444855,978.656067 298.214325,981.498169 
	C306.718567,983.742371 313.441833,988.032349 317.854187,995.718262 
	C329.538788,1016.071777 316.165344,1042.912842 292.794495,1046.021118 
	C261.671814,1050.160400 238.231766,1025.363403 244.449127,994.616882 
	C267.764282,879.316895 291.292023,764.059814 314.514160,648.741150 
	C333.458832,554.664001 352.080933,460.521942 370.848816,366.409241 
	C371.172791,364.784729 371.530884,363.166992 372.002289,360.933777 
	C373.845947,360.933777 375.615723,360.934052 377.385498,360.933746 
	C408.717133,360.928406 440.048950,360.968292 471.380219,360.856018 
	C474.997192,360.843048 478.773560,360.501556 482.198730,359.427826 
	C498.131439,354.432861 503.288422,334.253113 491.819550,322.106750 
	C489.779694,319.946381 487.329285,318.142181 484.933777,316.354034 
	C462.353546,299.498596 450.060333,265.106750 457.204254,238.647003 
	C461.559601,222.515518 473.704498,211.542480 489.222870,209.647202 
	C498.741028,208.484726 507.600464,210.740067 514.015747,217.626450 
	C520.757019,224.862717 527.390808,232.723846 531.874390,241.441925 
	C546.344299,269.577606 559.779846,298.244751 573.657959,326.685608 
	C590.469910,361.138733 607.420593,395.517303 631.077026,426.013641 
	C645.200073,444.220032 661.035706,460.400391 682.272034,470.494781 
	C732.713684,494.471558 790.491211,466.177551 801.378601,411.904053 
	C802.515503,406.236328 802.414246,400.320251 802.886230,394.036194 
M541.987488,860.803833 
	C538.399048,862.464600 534.359924,863.542236 531.309631,865.899414 
	C523.326843,872.068481 520.835815,882.693665 524.357300,892.599854 
	C527.597168,901.713867 536.340332,907.764832 546.889526,907.782166 
	C587.383606,907.848755 627.877808,907.806702 668.372009,907.813293 
	C717.364929,907.821350 766.357849,907.853943 815.350769,907.838806 
	C827.453735,907.835083 836.747559,900.925781 839.538208,890.040405 
	C842.957336,876.703552 835.787903,865.343567 820.279907,860.063416 
	C818.186951,859.712769 816.094177,859.056763 814.001038,859.055420 
	C725.909546,858.999573 637.818115,858.991028 549.726685,859.055664 
	C547.313782,859.057434 544.901611,859.924683 541.987488,860.803833 
M735.499939,665.575317 
	C745.664795,665.574524 755.829712,665.572021 765.994568,665.573364 
	C782.824585,665.575623 799.656006,665.714539 816.484253,665.542358 
	C830.397827,665.400024 840.290527,655.358521 840.226135,641.878906 
	C840.162781,628.614624 830.236267,619.122986 816.328064,619.070312 
	C808.329712,619.040039 800.331116,619.070557 792.332642,619.069763 
	C710.514954,619.061340 628.697327,619.062622 546.879639,619.025330 
	C539.463440,619.021973 533.043152,621.281250 528.333008,627.122437 
	C522.109924,634.839905 520.948853,643.595398 525.196960,652.440125 
	C529.572021,661.549194 537.435486,665.611572 547.536438,665.605347 
	C609.857605,665.567017 672.178711,665.577332 735.499939,665.575317 
M766.540833,739.541321 
	C693.219360,739.536987 619.897888,739.505066 546.576416,739.552490 
	C532.556030,739.561584 523.057190,748.965027 522.976746,762.531921 
	C522.895996,776.156799 532.729370,786.051392 546.706787,786.055115 
	C636.525024,786.078857 726.343201,786.059448 816.161438,785.993774 
	C829.831970,785.983826 840.312195,775.628662 840.250427,762.549316 
	C840.187561,749.234619 830.434326,739.724304 816.521484,739.629089 
	C800.191528,739.517334 783.860535,739.563293 766.540833,739.541321 
M474.269470,657.666992 
	C474.870392,656.479858 475.558868,655.328369 476.058746,654.100037 
	C481.688416,640.266357 476.809418,625.121033 464.115356,616.937866 
	C451.924835,609.079285 436.129822,611.193420 425.848083,622.059814 
	C415.827148,632.650574 414.738525,648.240417 423.613892,660.084717 
	C437.221954,678.244873 462.204559,676.376709 474.269470,657.666992 
M468.789551,906.304016 
	C480.733002,894.108459 481.763824,876.974487 471.282928,864.862671 
	C460.890350,852.853149 442.687500,850.759766 430.238586,860.142578 
	C416.255890,870.681335 413.550751,889.089417 424.013306,902.504517 
	C434.984344,916.571350 454.113708,918.423218 468.789551,906.304016 
M424.253113,744.806702 
	C423.690979,745.630005 423.092438,746.431030 422.572235,747.279968 
	C415.359253,759.051758 416.492798,772.868958 425.478821,782.849609 
	C434.821259,793.226257 448.964081,796.140076 461.389771,790.248474 
	C473.009186,784.739258 480.121124,771.423706 477.966980,758.438171 
	C475.974274,746.426025 469.156708,738.043091 457.464142,734.367432 
	C444.479645,730.285461 433.620270,734.303955 424.253113,744.806702 
z"/>
<path fill="#935FF8" opacity="1.000000" stroke="none" 
	d="
M820.945312,860.580017 
	C835.787903,865.343567 842.957336,876.703552 839.538208,890.040405 
	C836.747559,900.925781 827.453735,907.835083 815.350769,907.838806 
	C766.357849,907.853943 717.364929,907.821350 668.372009,907.813293 
	C627.877808,907.806702 587.383606,907.848755 546.889526,907.782166 
	C536.340332,907.764832 527.597168,901.713867 524.357300,892.599854 
	C520.835815,882.693665 523.326843,872.068481 531.309631,865.899414 
	C534.359924,863.542236 538.399048,862.464600 542.764160,860.646240 
	C604.021790,860.455750 664.502808,860.396362 724.983826,860.400818 
	C756.971008,860.403198 788.958130,860.516663 820.945312,860.580017 
z"/>
<path fill="#935FF9" opacity="1.000000" stroke="none" 
	d="
M734.999878,665.573364 
	C672.178711,665.577332 609.857605,665.567017 547.536438,665.605347 
	C537.435486,665.611572 529.572021,661.549194 525.196960,652.440125 
	C520.948853,643.595398 522.109924,634.839905 528.333008,627.122437 
	C533.043152,621.281250 539.463440,619.021973 546.879639,619.025330 
	C628.697327,619.062622 710.514954,619.061340 792.332642,619.069763 
	C800.331116,619.070557 808.329712,619.040039 816.328064,619.070312 
	C830.236267,619.122986 840.162781,628.614624 840.226135,641.878906 
	C840.290527,655.358521 830.397827,665.400024 816.484253,665.542358 
	C799.656006,665.714539 782.824585,665.575623 765.994568,665.573364 
	C755.829712,665.572021 745.664795,665.574524 734.999878,665.573364 
z"/>
<path fill="#945FFA" opacity="1.000000" stroke="none" 
	d="
M767.035400,739.541138 
	C783.860535,739.563293 800.191528,739.517334 816.521484,739.629089 
	C830.434326,739.724304 840.187561,749.234619 840.250427,762.549316 
	C840.312195,775.628662 829.831970,785.983826 816.161438,785.993774 
	C726.343201,786.059448 636.525024,786.078857 546.706787,786.055115 
	C532.729370,786.051392 522.895996,776.156799 522.976746,762.531921 
	C523.057190,748.965027 532.556030,739.561584 546.576416,739.552490 
	C619.897888,739.505066 693.219360,739.536987 767.035400,739.541138 
z"/>
<path fill="#935FF8" opacity="1.000000" stroke="none" 
	d="
M474.077698,657.979980 
	C462.204559,676.376709 437.221954,678.244873 423.613892,660.084717 
	C414.738525,648.240417 415.827148,632.650574 425.848083,622.059814 
	C436.129822,611.193420 451.924835,609.079285 464.115356,616.937866 
	C476.809418,625.121033 481.688416,640.266357 476.058746,654.100037 
	C475.558868,655.328369 474.870392,656.479858 474.077698,657.979980 
z"/>
<path fill="#945FF9" opacity="1.000000" stroke="none" 
	d="
M468.528076,906.546265 
	C454.113708,918.423218 434.984344,916.571350 424.013306,902.504517 
	C413.550751,889.089417 416.255890,870.681335 430.238586,860.142578 
	C442.687500,850.759766 460.890350,852.853149 471.282928,864.862671 
	C481.763824,876.974487 480.733002,894.108459 468.528076,906.546265 
z"/>
<path fill="#945FF9" opacity="1.000000" stroke="none" 
	d="
M424.480286,744.529358 
	C433.620270,734.303955 444.479645,730.285461 457.464142,734.367432 
	C469.156708,738.043091 475.974274,746.426025 477.966980,758.438171 
	C480.121124,771.423706 473.009186,784.739258 461.389771,790.248474 
	C448.964081,796.140076 434.821259,793.226257 425.478821,782.849609 
	C416.492798,772.868958 415.359253,759.051758 422.572235,747.279968 
	C423.092438,746.431030 423.690979,745.630005 424.480286,744.529358 
z"/>
<path fill="#1A1031" opacity="1.000000" stroke="none" 
	d="
M820.612610,860.321716 
	C788.958130,860.516663 756.971008,860.403198 724.983826,860.400818 
	C664.502808,860.396362 604.021790,860.455750 543.014893,860.438477 
	C544.901611,859.924683 547.313782,859.057434 549.726685,859.055664 
	C637.818115,858.991028 725.909546,858.999573 814.001038,859.055420 
	C816.094177,859.056763 818.186951,859.712769 820.612610,860.321716 
z"/>
</svg>